<?xml version="1.0" encoding="UTF-8"?>
<!DOCTYPE svg PUBLIC "-//W3C//DTD SVG 1.1//EN" "http://www.w3.org/Graphics/SVG/1.1/DTD/svg11.dtd">
<!-- Creator: CorelDRAW 2019 (64-Bit) -->
<svg xmlns="http://www.w3.org/2000/svg" xml:space="preserve" width="67mm" height="41mm" version="1.1" shape-rendering="geometricPrecision" text-rendering="geometricPrecision" image-rendering="optimizeQuality" fill-rule="evenodd" clip-rule="evenodd"
viewBox="0 0 6700 4100"
 xmlns:xlink="http://www.w3.org/1999/xlink"
 xmlns:xodm="http://www.corel.com/coreldraw/odm/2003">
 <defs>
   <clipPath id="id0">
    <path d="M3341.78 1378.5c200.53,0 375.76,163.72 375.76,353.42 0,188.4 -175.23,341.73 -375.76,341.73 -200.53,0 -375.76,-153.33 -375.76,-341.73 0,-189.7 175.23,-353.42 375.76,-353.42z"/>
   </clipPath>
   <clipPath id="id1">
    <path d="M2866.66 1941.11l829.2 0 0 265.07 -829.2 0 0 -265.07z"/>
   </clipPath>
   <clipPath id="id2">
    <path d="M3341.78 1422.68c195.11,0 354.08,145.52 354.08,324.83 0,180.61 -158.97,326.14 -354.08,326.14 -195.11,0 -354.08,-145.53 -354.08,-326.14 0,-179.31 158.97,-324.83 354.08,-324.83z"/>
   </clipPath>
   <clipPath id="id3">
    <path d="M3341.78 1455.16c195.11,0 319.76,113.04 319.76,292.35 0,180.61 -124.65,326.14 -319.76,326.14 -195.11,0 -319.76,-145.53 -319.76,-326.14 0,-179.31 124.65,-292.35 319.76,-292.35z"/>
   </clipPath>
   <clipPath id="id4">
    <path d="M3164.74 1388.9l66.84 -32.49 -155.36 -198.8 88.52 231.29z"/>
   </clipPath>
   <clipPath id="id5">
    <path d="M3679.6 1474.65l-61.42 -41.58 178.85 -176.71 -117.43 218.29z"/>
   </clipPath>
   <clipPath id="id6">
    <path d="M3014.79 1468.16l61.43 -41.58 -180.66 -175.41 119.23 216.99z"/>
   </clipPath>
   <clipPath id="id7">
    <path d="M3529.66 1388.9l-66.84 -32.49 155.36 -198.8 -88.52 231.29z"/>
   </clipPath>
   <clipPath id="id8">
    <path d="M2915.43 1633.17l37.94 -63.67 -238.46 -81.85 200.52 145.52z"/>
   </clipPath>
   <clipPath id="id9">
    <path d="M3766.32 1631.87l-37.94 -62.37 242.08 -80.56 -204.14 142.93z"/>
   </clipPath>
   <clipPath id="id10">
    <path d="M2920.85 1795.59l5.42 -74.06 -249.3 27.28 243.88 46.78z"/>
   </clipPath>
   <clipPath id="id11">
    <path d="M3757.28 1798.19l-7.22 -77.96 254.72 28.58 -247.5 49.38z"/>
   </clipPath>
   <clipPath id="id12">
    <path d="M3303.84 1346.02l74.07 3.9 -36.13 -248.18 -37.94 244.28z"/>
   </clipPath>
   <clipPath id="id13">
    <path d="M1000.49 2262.05l-177.04 309.24c0,0 681.07,198.8 1302.52,518.44 556.42,285.85 1060.45,696.44 1060.45,696.44 0,0 -319.76,-452.17 -861.73,-828.98 -550.99,-384.6 -1324.2,-695.14 -1324.2,-695.14z"/>
   </clipPath>
   <clipPath id="id14">
    <path d="M5704.74 2262.05l177.04 309.24c0,0 -679.26,198.8 -1302.52,518.44 -556.41,285.85 -1060.44,696.44 -1060.44,696.44 0,0 319.76,-452.17 861.72,-828.98 552.81,-384.6 1324.2,-695.14 1324.2,-695.14z"/>
   </clipPath>
   <clipPath id="id15">
    <path d="M1696.01 704.15c0,0 48.78,899.14 375.77,1038.17 14.45,6.49 240.27,-517.14 639.51,-949.82 382.99,-414.49 939.41,-739.32 939.41,-739.32 0,0 -737.07,549.62 -1092.96,1313.63 -75.88,161.11 -84.91,294.95 -121.04,475.55 -153.56,753.62 805.72,1325.33 805.72,1325.33 0,0 -399.25,-46.78 -729.85,-232.58 -298.08,-167.62 -529.31,-474.26 -529.31,-474.26 0,0 -220.4,-306.64 -298.08,-784.8 -65.04,-392.4 10.83,-971.9 10.83,-971.9z"/>
   </clipPath>
   <clipPath id="id16">
    <path d="M2050.1 936.73c121.04,0 220.4,90.95 220.4,203.99 0,113.05 -99.36,204 -220.4,204 -122.85,0 -222.21,-90.95 -222.21,-204 0,-113.04 99.36,-203.99 222.21,-203.99z"/>
   </clipPath>
   <clipPath id="id17">
    <path d="M4434.74 936.73c122.85,0 222.21,90.95 222.21,203.99 0,113.05 -99.36,204 -222.21,204 -121.04,0 -220.4,-90.95 -220.4,-204 0,-113.04 99.36,-203.99 220.4,-203.99z"/>
   </clipPath>
   <clipPath id="id18">
    <path d="M3110.54 814.59c0,0 491.38,-23.39 872.56,210.49 276.41,170.21 471.51,618.49 485.96,606.79 153.56,-129.93 298.08,-728.93 298.08,-728.93 0,0 110.2,472.96 75.88,851.07 -30.71,362.51 -220.4,628.88 -220.4,628.88 0,0 -177.04,274.16 -475.12,463.86 -298.08,191 -717.2,298.85 -717.2,298.85 0,0 888.82,-357.32 751.52,-1303.24 -135.49,-926.42 -1071.28,-1027.77 -1071.28,-1027.77z"/>
   </clipPath>
   <clipPath id="id19">
    <path d="M6004.63 2802.57l164.4 287.16c0,0 -637.72,57.17 -1270.01,220.88 -507.64,131.24 -1038.76,375.51 -1038.76,375.51 0,0 509.44,-319.63 1071.28,-552.22 505.83,-207.89 1073.09,-331.33 1073.09,-331.33z"/>
   </clipPath>
   <clipPath id="id20">
    <path d="M689.77 2770.09l-164.4 287.15c0,0 637.71,57.17 1270.01,220.89 507.63,131.23 1038.76,375.51 1038.76,375.51 0,0 -509.45,-319.64 -1071.28,-552.22 -505.84,-207.89 -1073.09,-331.33 -1073.09,-331.33z"/>
   </clipPath>
   <clipPath id="id21">
    <path d="M6600.79 3293.72c0,0 -820.17,-97.45 -1557.24,76.66 -879.79,207.9 -1701.77,691.25 -1701.77,691.25 0,0 693.71,-245.57 1358.52,-296.25 943.02,-71.46 1954.69,44.18 1954.69,44.18l-54.2 -515.84z"/>
   </clipPath>
   <clipPath id="id22">
    <path d="M93.61 3293.72c0,0 820.17,-97.45 1557.24,76.66 879.79,207.9 1701.77,691.25 1701.77,691.25 0,0 -693.72,-245.57 -1358.52,-296.25 -943.02,-71.46 -1954.69,44.18 -1954.69,44.18l54.2 -515.84z"/>
   </clipPath>
   <clipPath id="id23">
    <path d="M3132.22 2858.45c0,0 -314.34,-68.87 -475.12,-353.42 -121.04,-214.39 -99.36,-662.67 -99.36,-662.67 0,0 428.15,148.13 617.84,419.69 153.55,219.59 77.68,574.31 77.68,574.31 0,0 -128.27,-118.24 -265.56,-276.76 -99.36,-115.64 -187.88,-265.07 -187.88,-265.07 0,0 5.41,132.54 88.52,265.07 99.36,158.52 243.88,298.85 243.88,298.85z"/>
   </clipPath>
   <clipPath id="id24">
    <path d="M3549.53 2858.45c0,0 314.34,-68.87 475.12,-353.42 121.04,-214.39 99.36,-662.67 99.36,-662.67 0,0 -428.15,148.13 -619.64,419.69 -153.56,219.59 -77.68,574.31 -77.68,574.31 0,0 128.26,-118.24 265.56,-276.76 101.17,-115.64 187.88,-265.07 187.88,-265.07 0,0 -5.42,132.54 -88.52,265.07 -97.55,158.52 -242.08,298.85 -242.08,298.85z"/>
   </clipPath>
 </defs>
 <g id="Слой_x0020_1">
  <metadata id="CorelCorpID_0Corel-Layer"/>
  <g clip-path="url(#id0)">
   <image x="160.45" y="-113.14" width="6373.5" height="4584.06" xlink:href="logo_Images\logo_ImgID1.png"/>
  </g>
  <g clip-path="url(#id1)">
   <image x="160.45" y="-113.14" width="6373.5" height="4584.06" xlink:href="logo_Images\logo_ImgID2.png"/>
  </g>
  <g clip-path="url(#id2)">
   <image x="160.45" y="-113.14" width="6373.5" height="4584.06" xlink:href="logo_Images\logo_ImgID3.png"/>
  </g>
  <g clip-path="url(#id3)">
   <image x="160.45" y="-113.14" width="6373.5" height="4584.06" xlink:href="logo_Images\logo_ImgID4.png"/>
  </g>
  <g clip-path="url(#id4)">
   <image x="160.45" y="-113.14" width="6373.5" height="4584.06" xlink:href="logo_Images\logo_ImgID5.png"/>
  </g>
  <g clip-path="url(#id5)">
   <image x="160.45" y="-113.14" width="6373.5" height="4584.06" xlink:href="logo_Images\logo_ImgID6.png"/>
  </g>
  <g clip-path="url(#id6)">
   <image x="160.45" y="-113.14" width="6373.5" height="4584.06" xlink:href="logo_Images\logo_ImgID7.png"/>
  </g>
  <g clip-path="url(#id7)">
   <image x="160.45" y="-113.14" width="6373.5" height="4584.06" xlink:href="logo_Images\logo_ImgID8.png"/>
  </g>
  <g clip-path="url(#id8)">
   <image x="160.45" y="-113.14" width="6373.5" height="4584.06" xlink:href="logo_Images\logo_ImgID9.png"/>
  </g>
  <g clip-path="url(#id9)">
   <image x="160.45" y="-113.14" width="6373.5" height="4584.06" xlink:href="logo_Images\logo_ImgID10.png"/>
  </g>
  <g clip-path="url(#id10)">
   <image x="160.45" y="-113.14" width="6373.5" height="4584.06" xlink:href="logo_Images\logo_ImgID11.png"/>
  </g>
  <g clip-path="url(#id11)">
   <image x="160.45" y="-113.14" width="6373.5" height="4584.06" xlink:href="logo_Images\logo_ImgID12.png"/>
  </g>
  <g clip-path="url(#id12)">
   <image x="160.45" y="-113.14" width="6373.5" height="4584.06" xlink:href="logo_Images\logo_ImgID13.png"/>
  </g>
  <g clip-path="url(#id13)">
   <image x="160.45" y="-113.14" width="6373.5" height="4584.06" xlink:href="logo_Images\logo_ImgID14.png"/>
  </g>
  <g clip-path="url(#id14)">
   <image x="160.45" y="-113.14" width="6373.5" height="4584.06" xlink:href="logo_Images\logo_ImgID15.png"/>
  </g>
  <g clip-path="url(#id15)">
   <image x="160.45" y="-113.14" width="6373.5" height="4584.06" xlink:href="logo_Images\logo_ImgID16.png"/>
  </g>
  <g clip-path="url(#id16)">
   <image x="160.45" y="-113.14" width="6373.5" height="4584.06" xlink:href="logo_Images\logo_ImgID17.png"/>
  </g>
  <g clip-path="url(#id17)">
   <image x="160.45" y="-113.14" width="6373.5" height="4584.06" xlink:href="logo_Images\logo_ImgID18.png"/>
  </g>
  <g clip-path="url(#id18)">
   <image x="160.45" y="-113.14" width="6373.5" height="4584.06" xlink:href="logo_Images\logo_ImgID19.png"/>
  </g>
  <g clip-path="url(#id19)">
   <image x="160.45" y="-113.14" width="6373.5" height="4584.06" xlink:href="logo_Images\logo_ImgID20.png"/>
  </g>
  <g clip-path="url(#id20)">
   <image x="160.45" y="-113.14" width="6373.5" height="4584.06" xlink:href="logo_Images\logo_ImgID21.png"/>
  </g>
  <g clip-path="url(#id21)">
   <image x="160.45" y="-113.14" width="6373.5" height="4584.06" xlink:href="logo_Images\logo_ImgID22.png"/>
  </g>
  <g clip-path="url(#id22)">
   <image x="160.45" y="-113.14" width="6373.5" height="4584.06" xlink:href="logo_Images\logo_ImgID23.png"/>
  </g>
  <g clip-path="url(#id23)">
   <image x="160.45" y="-113.14" width="6373.5" height="4584.06" xlink:href="logo_Images\logo_ImgID24.png"/>
  </g>
  <g clip-path="url(#id24)">
   <image x="160.45" y="-113.14" width="6373.5" height="4584.06" xlink:href="logo_Images\logo_ImgID25.png"/>
  </g>
 </g>
</svg>
